<svg aria-hidden="true" style="position: absolute; width: 0; height: 0; overflow: hidden;" version="1.1" xmlns="http://www.w3.org/2000/svg" xmlns:xlink="http://www.w3.org/1999/xlink">
<defs>
<symbol id="icon-play" viewBox="0 0 32 32">
<path fill="var(--color1, #586291)" opacity="0.3" d="M32 16c0 8.837-7.163 16-16 16s-16-7.163-16-16c0-8.837 7.163-16 16-16s16 7.163 16 16z"></path>
<path fill="var(--color2, #262a3f)" d="M21.685 15.631c0.19 0.1 0.19 0.372 0 0.472l-8.161 4.293c-0.178 0.093-0.391-0.035-0.391-0.236v-8.585c0-0.201 0.213-0.329 0.391-0.236l8.161 4.293z"></path>
</symbol>
<symbol id="icon-Union" viewBox="0 0 33 32">
<path fill="var(--color3, #fff)" d="M21.094 4.75l2.426 2.424 7.181-7.174h-4.915l-4.692 4.75zM32.027 8.112l-3.427-3.362 3.427-3.424v6.786zM6.079 19.749l6.179-6.173 2.426 2.424-6.179 6.173-2.426-2.424zM21.090 19.75l6.179-6.173 2.426 2.424-6.179 6.173-2.426-2.424zM16.010 17.326l-2.426 2.424 6.179 6.173 2.426-2.424-6.179-6.173zM12.261 21.076l6.18 6.174-2.426 2.487-6.18-6.237 2.426-2.424zM31.089 17.326l0.938 0.938v4.849l-3.427-3.362 2.489-2.424zM2.326 15.999l6.179-6.173 2.426 2.424-6.179 6.173-2.426-2.424zM23.516 9.827l-6.179 6.173 2.426 2.424 6.179-6.173-2.426-2.424zM27.273 6.076l4.754 4.688v4.849l-7.181-7.112 2.426-2.424zM13.587 4.75l6.18 6.174 2.426-2.424-6.18-6.237-2.426 2.487zM12.258 6.077l-2.426 2.424 6.179 6.173 2.426-2.424-6.179-6.173zM25.947 27.25l-2.426-2.424-7.118 7.174h4.853l4.692-4.75zM12.261 28.576l2.426 2.487-0.938 0.938h-4.853l3.365-3.424zM10.934 27.25l-2.426-2.424-7.18 7.174h4.915l4.692-4.75zM24.847 23.5l2.426-2.424 4.754 4.688v4.911l-7.181-7.174zM0 23.888v6.786l3.427-3.424-3.427-3.362zM23.909 32l3.365-3.424 3.427 3.424h-6.792zM17.34 0.938l2.426 2.487 3.365-3.424h-4.853l-0.938 0.938zM8.119 0l-3.365 3.424-3.427-3.424h6.792zM4.754 25.924l2.426-2.424-7.18-7.112v4.849l4.754 4.688zM8.507 7.174l-2.426-2.424 4.692-4.75h4.853l-7.118 7.174zM4.754 10.924l2.426-2.424-7.18-7.174v4.911l4.754 4.687zM3.427 12.25l-2.489 2.424-0.938-0.938v-4.849l3.427 3.362z"></path>
</symbol>
</defs>
</svg>
